<svg xmlns="http://www.w3.org/2000/svg" viewBox="0 0 1000 820" width="1000" height="820">
<circle cx="576.52" cy="350.75" r="1.08" fill="#faf7f0" opacity="0.26"/><circle cx="981.39" cy="194.6" r="0.89" fill="#faf7f0" opacity="0.22"/><circle cx="545.5" cy="414.03" r="0.92" fill="#faf7f0" opacity="0.58"/><circle cx="309.57" cy="690.09" r="0.83" fill="#faf7f0" opacity="0.29"/><circle cx="404.88" cy="125.75" r="0.71" fill="#faf7f0" opacity="0.33"/><circle cx="928.36" cy="304.6" r="1.18" fill="#faf7f0" opacity="0.27"/><circle cx="974.95" cy="491.52" r="0.69" fill="#faf7f0" opacity="0.43"/><circle cx="129.08" cy="416.21" r="1.46" fill="#faf7f0" opacity="0.48"/><circle cx="552.2" cy="277.91" r="1.4" fill="#faf7f0" opacity="0.28"/><circle cx="646.1" cy="299.13" r="0.85" fill="#faf7f0" opacity="0.22"/><circle cx="837.76" cy="740.51" r="1.19" fill="#faf7f0" opacity="0.47"/><circle cx="409.14" cy="673.43" r="1.34" fill="#faf7f0" opacity="0.5"/><circle cx="419.37" cy="305.19" r="1.45" fill="#faf7f0" opacity="0.38"/><circle cx="163.46" cy="116.17" r="0.72" fill="#faf7f0" opacity="0.3"/><circle cx="89.62" cy="20.57" r="0.52" fill="#faf7f0" opacity="0.19"/><circle cx="930.32" cy="595.72" r="1.27" fill="#faf7f0" opacity="0.5"/><circle cx="444.38" cy="125.57" r="0.93" fill="#faf7f0" opacity="0.56"/><circle cx="608.67" cy="175.55" r="0.76" fill="#faf7f0" opacity="0.47"/><circle cx="102.44" cy="208.31" r="1.44" fill="#faf7f0" opacity="0.45"/><circle cx="345.58" cy="97.94" r="0.7" fill="#faf7f0" opacity="0.31"/><circle cx="216.29" cy="376.66" r="0.68" fill="#faf7f0" opacity="0.24"/><circle cx="2.47" cy="608.76" r="0.45" fill="#faf7f0" opacity="0.26"/><circle cx="723.34" cy="561.99" r="0.62" fill="#faf7f0" opacity="0.19"/><circle cx="256.69" cy="640.02" r="0.83" fill="#faf7f0" opacity="0.45"/><circle cx="876.45" cy="694.31" r="1.45" fill="#faf7f0" opacity="0.42"/><circle cx="938.81" cy="274.38" r="1.3" fill="#faf7f0" opacity="0.27"/><circle cx="88.13" cy="531.76" r="1.05" fill="#faf7f0" opacity="0.34"/><circle cx="62.23" cy="569.21" r="0.49" fill="#faf7f0" opacity="0.25"/><circle cx="864.06" cy="805.56" r="0.67" fill="#faf7f0" opacity="0.52"/><circle cx="55.41" cy="210.12" r="0.51" fill="#faf7f0" opacity="0.21"/><circle cx="159.5" cy="317.89" r="0.67" fill="#faf7f0" opacity="0.47"/><circle cx="858.08" cy="154.16" r="0.48" fill="#faf7f0" opacity="0.35"/><circle cx="623.32" cy="223.95" r="0.7" fill="#faf7f0" opacity="0.51"/><circle cx="226.89" cy="213.17" r="1.33" fill="#faf7f0" opacity="0.24"/><circle cx="675.77" cy="518.17" r="1.18" fill="#faf7f0" opacity="0.44"/><circle cx="557.95" cy="426.42" r="1.46" fill="#faf7f0" opacity="0.26"/><circle cx="863.2" cy="44.88" r="1.27" fill="#faf7f0" opacity="0.31"/><circle cx="523.92" cy="89.85" r="1.07" fill="#faf7f0" opacity="0.43"/><circle cx="502.08" cy="24.07" r="1.37" fill="#faf7f0" opacity="0.43"/><circle cx="491.72" cy="287.36" r="0.52" fill="#faf7f0" opacity="0.38"/><circle cx="538.23" cy="180.62" r="0.51" fill="#faf7f0" opacity="0.47"/><circle cx="273.33" cy="178.52" r="0.93" fill="#faf7f0" opacity="0.45"/><circle cx="23.53" cy="492.19" r="0.76" fill="#faf7f0" opacity="0.38"/><circle cx="264.16" cy="27.94" r="0.88" fill="#faf7f0" opacity="0.31"/><circle cx="219.93" cy="89.42" r="0.46" fill="#faf7f0" opacity="0.39"/><circle cx="136.7" cy="609" r="0.63" fill="#faf7f0" opacity="0.46"/><circle cx="433.13" cy="327.2" r="1.18" fill="#faf7f0" opacity="0.27"/><circle cx="936.03" cy="517.16" r="1.04" fill="#faf7f0" opacity="0.33"/><circle cx="182.63" cy="616.92" r="1.18" fill="#faf7f0" opacity="0.27"/><circle cx="979.26" cy="527.5" r="1.31" fill="#faf7f0" opacity="0.35"/><circle cx="996.36" cy="666.63" r="0.51" fill="#faf7f0" opacity="0.4"/><circle cx="731.33" cy="102.66" r="1.24" fill="#faf7f0" opacity="0.52"/><circle cx="731.13" cy="457.06" r="0.64" fill="#faf7f0" opacity="0.22"/><circle cx="914.34" cy="376.33" r="0.48" fill="#faf7f0" opacity="0.34"/><circle cx="925.76" cy="69.97" r="0.65" fill="#faf7f0" opacity="0.42"/><circle cx="528.73" cy="481" r="0.79" fill="#faf7f0" opacity="0.38"/><circle cx="549.96" cy="8.53" r="1.25" fill="#faf7f0" opacity="0.42"/><circle cx="499.32" cy="45.11" r="0.41" fill="#faf7f0" opacity="0.36"/><circle cx="72.75" cy="630.83" r="1.45" fill="#faf7f0" opacity="0.23"/><circle cx="597.57" cy="705.95" r="1.01" fill="#faf7f0" opacity="0.5"/><circle cx="653.44" cy="52.89" r="0.57" fill="#faf7f0" opacity="0.56"/><circle cx="547.21" cy="750.4" r="0.49" fill="#faf7f0" opacity="0.39"/><circle cx="941.63" cy="295.54" r="0.62" fill="#faf7f0" opacity="0.2"/><circle cx="835.75" cy="605.07" r="1.16" fill="#faf7f0" opacity="0.21"/><circle cx="145.16" cy="95.89" r="0.56" fill="#faf7f0" opacity="0.47"/><circle cx="358.17" cy="71.96" r="1.35" fill="#faf7f0" opacity="0.5"/><circle cx="795.45" cy="267.03" r="0.41" fill="#faf7f0" opacity="0.42"/><circle cx="438.2" cy="411.33" r="0.91" fill="#faf7f0" opacity="0.31"/><circle cx="403.26" cy="658.92" r="1.11" fill="#faf7f0" opacity="0.41"/><circle cx="17.42" cy="180.4" r="1.34" fill="#faf7f0" opacity="0.36"/><circle cx="496.82" cy="629.2" r="1.27" fill="#faf7f0" opacity="0.4"/><circle cx="260.33" cy="763.18" r="1.14" fill="#faf7f0" opacity="0.46"/><circle cx="57.09" cy="385.17" r="1.01" fill="#faf7f0" opacity="0.32"/><circle cx="199.04" cy="239.45" r="0.7" fill="#faf7f0" opacity="0.37"/><circle cx="81.2" cy="317.3" r="0.64" fill="#faf7f0" opacity="0.41"/><circle cx="172.37" cy="694.09" r="0.6" fill="#faf7f0" opacity="0.25"/><circle cx="437.74" cy="801.88" r="1.35" fill="#faf7f0" opacity="0.37"/><circle cx="423.99" cy="157.31" r="0.9" fill="#faf7f0" opacity="0.56"/><circle cx="342.39" cy="219.08" r="1.02" fill="#faf7f0" opacity="0.41"/><circle cx="139.45" cy="226" r="0.79" fill="#faf7f0" opacity="0.32"/><circle cx="327.67" cy="560.32" r="1.41" fill="#faf7f0" opacity="0.43"/><circle cx="110.51" cy="741.38" r="1.22" fill="#faf7f0" opacity="0.41"/><circle cx="615.84" cy="459.83" r="0.72" fill="#faf7f0" opacity="0.19"/><circle cx="416.7" cy="130.06" r="0.69" fill="#faf7f0" opacity="0.22"/><circle cx="385.87" cy="117.87" r="0.57" fill="#faf7f0" opacity="0.5"/><circle cx="512.49" cy="283.19" r="0.41" fill="#faf7f0" opacity="0.23"/><circle cx="222.47" cy="761.17" r="1.2" fill="#faf7f0" opacity="0.56"/><circle cx="378.88" cy="226.65" r="1.49" fill="#faf7f0" opacity="0.45"/><circle cx="768.57" cy="807.09" r="1.08" fill="#faf7f0" opacity="0.33"/><circle cx="36.81" cy="7.66" r="1.48" fill="#faf7f0" opacity="0.29"/><circle cx="102.92" cy="349.72" r="0.82" fill="#faf7f0" opacity="0.32"/><circle cx="223.38" cy="173.56" r="0.61" fill="#faf7f0" opacity="0.56"/><circle cx="767.94" cy="286.73" r="0.98" fill="#faf7f0" opacity="0.39"/><circle cx="416.28" cy="52.44" r="0.95" fill="#faf7f0" opacity="0.24"/><circle cx="836.81" cy="647.49" r="1.39" fill="#faf7f0" opacity="0.26"/><circle cx="61.31" cy="643.31" r="1.42" fill="#faf7f0" opacity="0.46"/><circle cx="177.92" cy="569.51" r="0.41" fill="#faf7f0" opacity="0.33"/><circle cx="936.77" cy="546.94" r="0.95" fill="#faf7f0" opacity="0.3"/><circle cx="648.4" cy="223.49" r="1.07" fill="#faf7f0" opacity="0.38"/><circle cx="250.24" cy="462.24" r="0.59" fill="#faf7f0" opacity="0.24"/><circle cx="354.09" cy="557.59" r="0.95" fill="#faf7f0" opacity="0.27"/><circle cx="746.39" cy="433.6" r="0.93" fill="#faf7f0" opacity="0.26"/><circle cx="792.08" cy="273.13" r="0.44" fill="#faf7f0" opacity="0.29"/><circle cx="863.74" cy="96.64" r="1.14" fill="#faf7f0" opacity="0.38"/><circle cx="155.54" cy="565.16" r="1.34" fill="#faf7f0" opacity="0.55"/><circle cx="838.16" cy="289.29" r="1.24" fill="#faf7f0" opacity="0.47"/><circle cx="390.38" cy="272.67" r="1.24" fill="#faf7f0" opacity="0.56"/><circle cx="790.46" cy="192.33" r="1.44" fill="#faf7f0" opacity="0.24"/><circle cx="545.37" cy="706.16" r="1.03" fill="#faf7f0" opacity="0.21"/><circle cx="516.79" cy="675.02" r="0.78" fill="#faf7f0" opacity="0.53"/><circle cx="886.76" cy="311.22" r="0.91" fill="#faf7f0" opacity="0.42"/><circle cx="395.99" cy="165.63" r="0.92" fill="#faf7f0" opacity="0.31"/><circle cx="480.19" cy="707.89" r="1.11" fill="#faf7f0" opacity="0.33"/><circle cx="941.86" cy="776.05" r="1.04" fill="#faf7f0" opacity="0.39"/><circle cx="108.62" cy="427.04" r="1.48" fill="#faf7f0" opacity="0.55"/><circle cx="872.8" cy="624.73" r="1.02" fill="#faf7f0" opacity="0.34"/><circle cx="342.86" cy="545.43" r="0.66" fill="#faf7f0" opacity="0.41"/><circle cx="795.7" cy="390.33" r="0.85" fill="#faf7f0" opacity="0.52"/><circle cx="683.89" cy="610.4" r="0.84" fill="#faf7f0" opacity="0.24"/><circle cx="820.81" cy="312.45" r="0.66" fill="#faf7f0" opacity="0.48"/><circle cx="640.3" cy="28.62" r="1.02" fill="#faf7f0" opacity="0.35"/><circle cx="874.53" cy="799.64" r="0.96" fill="#faf7f0" opacity="0.49"/><circle cx="231.31" cy="57.55" r="0.71" fill="#faf7f0" opacity="0.4"/><circle cx="481.42" cy="500.72" r="1.41" fill="#faf7f0" opacity="0.45"/><circle cx="261.4" cy="32.65" r="0.42" fill="#faf7f0" opacity="0.37"/><circle cx="95.15" cy="359.87" r="1" fill="#faf7f0" opacity="0.39"/><circle cx="786.4" cy="179.31" r="0.85" fill="#faf7f0" opacity="0.24"/><circle cx="768.4" cy="344.94" r="0.72" fill="#faf7f0" opacity="0.57"/><circle cx="948.9" cy="148.91" r="0.4" fill="#faf7f0" opacity="0.41"/><circle cx="915.03" cy="318.1" r="1.28" fill="#faf7f0" opacity="0.42"/><circle cx="229.66" cy="587.37" r="1.41" fill="#faf7f0" opacity="0.34"/><circle cx="641.44" cy="678.39" r="0.76" fill="#faf7f0" opacity="0.39"/><circle cx="973.79" cy="764.96" r="0.59" fill="#faf7f0" opacity="0.2"/><circle cx="29.68" cy="562.94" r="1.07" fill="#faf7f0" opacity="0.36"/><circle cx="959.17" cy="742.26" r="1.06" fill="#faf7f0" opacity="0.22"/><circle cx="797.47" cy="306.08" r="1.14" fill="#faf7f0" opacity="0.32"/><circle cx="368.35" cy="745.83" r="0.88" fill="#faf7f0" opacity="0.45"/><circle cx="659.2" cy="736.47" r="0.74" fill="#faf7f0" opacity="0.51"/><circle cx="399.26" cy="247.33" r="0.55" fill="#faf7f0" opacity="0.18"/><circle cx="86.91" cy="150.46" r="0.61" fill="#faf7f0" opacity="0.19"/><circle cx="847.08" cy="690.26" r="1.14" fill="#faf7f0" opacity="0.39"/><circle cx="252.46" cy="429.41" r="1.47" fill="#faf7f0" opacity="0.44"/><circle cx="747.93" cy="632.59" r="0.89" fill="#faf7f0" opacity="0.4"/><circle cx="735.39" cy="49.07" r="0.81" fill="#faf7f0" opacity="0.41"/><circle cx="423.6" cy="162.86" r="0.77" fill="#faf7f0" opacity="0.19"/><circle cx="603.05" cy="685.41" r="0.6" fill="#faf7f0" opacity="0.39"/><circle cx="715.49" cy="350.26" r="0.5" fill="#faf7f0" opacity="0.51"/><circle cx="148.37" cy="602.78" r="1.36" fill="#faf7f0" opacity="0.45"/><circle cx="944.56" cy="214.73" r="1.16" fill="#faf7f0" opacity="0.21"/><circle cx="792.41" cy="545.84" r="0.5" fill="#faf7f0" opacity="0.38"/><circle cx="61.31" cy="617.51" r="1.37" fill="#faf7f0" opacity="0.22"/><circle cx="673.97" cy="779.54" r="0.4" fill="#faf7f0" opacity="0.34"/><circle cx="645.55" cy="518.79" r="0.94" fill="#faf7f0" opacity="0.56"/><circle cx="204.35" cy="263.03" r="1.38" fill="#faf7f0" opacity="0.48"/><circle cx="208.38" cy="232.39" r="1.46" fill="#faf7f0" opacity="0.5"/><circle cx="700.41" cy="302.23" r="0.46" fill="#faf7f0" opacity="0.22"/><circle cx="109.97" cy="462.09" r="0.59" fill="#faf7f0" opacity="0.21"/><circle cx="840.39" cy="304.79" r="0.4" fill="#faf7f0" opacity="0.56"/><circle cx="277.62" cy="407.76" r="1.09" fill="#faf7f0" opacity="0.2"/><circle cx="972.66" cy="96.44" r="0.49" fill="#faf7f0" opacity="0.45"/><circle cx="951.52" cy="357.98" r="1.17" fill="#faf7f0" opacity="0.38"/><circle cx="884.67" cy="337.57" r="0.82" fill="#faf7f0" opacity="0.47"/><circle cx="625.99" cy="790.76" r="1.21" fill="#faf7f0" opacity="0.54"/><circle cx="725.9" cy="698.88" r="1.02" fill="#faf7f0" opacity="0.24"/><circle cx="656.57" cy="42.07" r="0.79" fill="#faf7f0" opacity="0.43"/><circle cx="914.33" cy="744.34" r="1.14" fill="#faf7f0" opacity="0.36"/><circle cx="899.84" cy="363.86" r="0.86" fill="#faf7f0" opacity="0.42"/><circle cx="790.59" cy="738.64" r="1" fill="#faf7f0" opacity="0.31"/><circle cx="858" cy="377.27" r="1.33" fill="#faf7f0" opacity="0.22"/><circle cx="756.27" cy="809.19" r="0.61" fill="#faf7f0" opacity="0.43"/><circle cx="574.08" cy="315.46" r="0.67" fill="#faf7f0" opacity="0.31"/><circle cx="902.85" cy="508.98" r="1.48" fill="#faf7f0" opacity="0.57"/><circle cx="560.69" cy="490.24" r="1.1" fill="#faf7f0" opacity="0.33"/><circle cx="28.18" cy="516.07" r="0.77" fill="#faf7f0" opacity="0.34"/><circle cx="311.55" cy="477.7" r="0.83" fill="#faf7f0" opacity="0.29"/><circle cx="351.4" cy="596.62" r="1.47" fill="#faf7f0" opacity="0.38"/><circle cx="176.23" cy="550.81" r="0.57" fill="#faf7f0" opacity="0.27"/><circle cx="731.61" cy="693.35" r="0.9" fill="#faf7f0" opacity="0.57"/><circle cx="230.67" cy="576.74" r="0.6" fill="#faf7f0" opacity="0.52"/><circle cx="687.21" cy="37.04" r="0.77" fill="#faf7f0" opacity="0.2"/><circle cx="397.7" cy="516.84" r="1.3" fill="#faf7f0" opacity="0.41"/><circle cx="737.19" cy="782.87" r="0.49" fill="#faf7f0" opacity="0.53"/><circle cx="790.24" cy="529.29" r="0.69" fill="#faf7f0" opacity="0.36"/><circle cx="95.61" cy="444.31" r="1.47" fill="#faf7f0" opacity="0.5"/><circle cx="477.55" cy="249.3" r="0.93" fill="#faf7f0" opacity="0.18"/><circle cx="926.89" cy="750.04" r="0.53" fill="#faf7f0" opacity="0.54"/><circle cx="662.14" cy="741.23" r="0.47" fill="#faf7f0" opacity="0.38"/><circle cx="294.74" cy="697.26" r="0.48" fill="#faf7f0" opacity="0.24"/><circle cx="898.06" cy="608.66" r="0.49" fill="#faf7f0" opacity="0.48"/><circle cx="10.45" cy="600.1" r="0.54" fill="#faf7f0" opacity="0.33"/><circle cx="744.17" cy="548.86" r="0.55" fill="#faf7f0" opacity="0.24"/><circle cx="284.4" cy="141.23" r="0.85" fill="#faf7f0" opacity="0.52"/><circle cx="500.33" cy="353.8" r="1.33" fill="#faf7f0" opacity="0.28"/><circle cx="585.48" cy="523.54" r="1.23" fill="#faf7f0" opacity="0.31"/><circle cx="212.85" cy="57.4" r="1.24" fill="#faf7f0" opacity="0.52"/><circle cx="232.91" cy="296.1" r="0.69" fill="#faf7f0" opacity="0.29"/><circle cx="840.04" cy="726.11" r="0.75" fill="#faf7f0" opacity="0.19"/><circle cx="493.55" cy="572.56" r="0.95" fill="#faf7f0" opacity="0.45"/><circle cx="205.91" cy="759.04" r="0.89" fill="#faf7f0" opacity="0.36"/><circle cx="304.7" cy="607.5" r="1.04" fill="#faf7f0" opacity="0.43"/><circle cx="775.56" cy="271.56" r="0.66" fill="#faf7f0" opacity="0.33"/><circle cx="630.65" cy="614.3" r="1.42" fill="#faf7f0" opacity="0.21"/><circle cx="356.89" cy="182.39" r="0.6" fill="#faf7f0" opacity="0.57"/><circle cx="227.48" cy="425.65" r="1.05" fill="#faf7f0" opacity="0.25"/><circle cx="520.65" cy="629.27" r="0.9" fill="#faf7f0" opacity="0.43"/><circle cx="425.1" cy="637.17" r="0.83" fill="#faf7f0" opacity="0.33"/><circle cx="992.62" cy="489.98" r="1.5" fill="#faf7f0" opacity="0.51"/><circle cx="979.69" cy="47.54" r="0.53" fill="#faf7f0" opacity="0.24"/><circle cx="501.29" cy="791.28" r="0.61" fill="#faf7f0" opacity="0.58"/><circle cx="505.78" cy="410.2" r="1.49" fill="#faf7f0" opacity="0.56"/><circle cx="954.63" cy="737.71" r="0.69" fill="#faf7f0" opacity="0.54"/><circle cx="532.32" cy="68.67" r="1.39" fill="#faf7f0" opacity="0.19"/><circle cx="3.68" cy="265.99" r="0.41" fill="#faf7f0" opacity="0.32"/><circle cx="883.32" cy="211.18" r="1.27" fill="#faf7f0" opacity="0.49"/><circle cx="435.85" cy="424.25" r="1.46" fill="#faf7f0" opacity="0.29"/><circle cx="91.04" cy="9.01" r="1.08" fill="#faf7f0" opacity="0.24"/><circle cx="651.17" cy="66.06" r="1.16" fill="#faf7f0" opacity="0.52"/><circle cx="752.28" cy="506.66" r="1.18" fill="#faf7f0" opacity="0.42"/><circle cx="73.49" cy="790.72" r="0.86" fill="#faf7f0" opacity="0.26"/><circle cx="637.72" cy="494.06" r="0.97" fill="#faf7f0" opacity="0.48"/><circle cx="919.64" cy="291.85" r="0.42" fill="#faf7f0" opacity="0.51"/><circle cx="245.68" cy="426.42" r="1.04" fill="#faf7f0" opacity="0.58"/><circle cx="368.72" cy="690.61" r="1.46" fill="#faf7f0" opacity="0.4"/><circle cx="586.57" cy="220.68" r="0.93" fill="#faf7f0" opacity="0.33"/><circle cx="304.07" cy="732.38" r="0.94" fill="#faf7f0" opacity="0.3"/><circle cx="209.49" cy="748.16" r="0.97" fill="#faf7f0" opacity="0.4"/><circle cx="385.94" cy="359.86" r="0.57" fill="#faf7f0" opacity="0.56"/><circle cx="61.19" cy="233.09" r="1.48" fill="#faf7f0" opacity="0.41"/><circle cx="911.76" cy="76.25" r="0.45" fill="#faf7f0" opacity="0.22"/><circle cx="624.71" cy="511.34" r="0.66" fill="#faf7f0" opacity="0.38"/><circle cx="917.88" cy="341.45" r="0.88" fill="#faf7f0" opacity="0.38"/><circle cx="37.58" cy="265.62" r="1.04" fill="#faf7f0" opacity="0.36"/><circle cx="621.75" cy="789.42" r="0.75" fill="#faf7f0" opacity="0.57"/><circle cx="294.41" cy="366.14" r="0.41" fill="#faf7f0" opacity="0.48"/><circle cx="337.68" cy="727.03" r="1" fill="#faf7f0" opacity="0.29"/><circle cx="547.44" cy="428.9" r="1.15" fill="#faf7f0" opacity="0.42"/><circle cx="498.04" cy="534.67" r="0.99" fill="#faf7f0" opacity="0.49"/><circle cx="837.3" cy="741.32" r="1.43" fill="#faf7f0" opacity="0.21"/><circle cx="12.53" cy="372.73" r="0.68" fill="#faf7f0" opacity="0.3"/><circle cx="113.54" cy="249.25" r="0.87" fill="#faf7f0" opacity="0.34"/><circle cx="984.22" cy="589.67" r="0.69" fill="#faf7f0" opacity="0.29"/><circle cx="133.85" cy="386.47" r="0.91" fill="#faf7f0" opacity="0.49"/><circle cx="482.88" cy="307.5" r="1.28" fill="#faf7f0" opacity="0.31"/><circle cx="277.65" cy="450.67" r="0.57" fill="#faf7f0" opacity="0.18"/><circle cx="819.43" cy="524.98" r="0.86" fill="#faf7f0" opacity="0.4"/><circle cx="78.09" cy="530.02" r="1.36" fill="#faf7f0" opacity="0.54"/><circle cx="553.07" cy="343.02" r="0.76" fill="#faf7f0" opacity="0.57"/><circle cx="5.11" cy="766.82" r="1.32" fill="#faf7f0" opacity="0.31"/><circle cx="599.14" cy="399.78" r="0.85" fill="#faf7f0" opacity="0.18"/><circle cx="971.12" cy="35.05" r="1.01" fill="#faf7f0" opacity="0.23"/><circle cx="542.25" cy="47.74" r="1.49" fill="#faf7f0" opacity="0.56"/><circle cx="669.26" cy="772.86" r="0.74" fill="#faf7f0" opacity="0.39"/><circle cx="660.51" cy="131.1" r="1.39" fill="#faf7f0" opacity="0.52"/><circle cx="854.81" cy="754.3" r="1.3" fill="#faf7f0" opacity="0.39"/><circle cx="108.56" cy="547.03" r="0.91" fill="#faf7f0" opacity="0.19"/><circle cx="422.14" cy="434.67" r="0.9" fill="#faf7f0" opacity="0.28"/><circle cx="883.64" cy="389.41" r="1.37" fill="#faf7f0" opacity="0.55"/><circle cx="128.92" cy="454.59" r="1.17" fill="#faf7f0" opacity="0.58"/><circle cx="668.49" cy="177.59" r="0.9" fill="#faf7f0" opacity="0.34"/><circle cx="448.83" cy="395.87" r="0.95" fill="#faf7f0" opacity="0.52"/><circle cx="573.11" cy="165.44" r="0.98" fill="#faf7f0" opacity="0.39"/><circle cx="889.09" cy="757.84" r="1.17" fill="#faf7f0" opacity="0.5"/><circle cx="524.93" cy="667.81" r="0.8" fill="#faf7f0" opacity="0.53"/><circle cx="316.06" cy="594.34" r="1.36" fill="#faf7f0" opacity="0.52"/><circle cx="89.65" cy="796.06" r="0.89" fill="#faf7f0" opacity="0.44"/><circle cx="393.48" cy="656.79" r="1.24" fill="#faf7f0" opacity="0.26"/><circle cx="281.54" cy="109.71" r="1.26" fill="#faf7f0" opacity="0.24"/><circle cx="859.91" cy="147.67" r="0.83" fill="#faf7f0" opacity="0.29"/><circle cx="475.77" cy="58.99" r="1.45" fill="#faf7f0" opacity="0.55"/><circle cx="588.79" cy="366.07" r="0.67" fill="#faf7f0" opacity="0.25"/><circle cx="686.68" cy="736.26" r="0.94" fill="#faf7f0" opacity="0.32"/><circle cx="383.33" cy="461.39" r="0.48" fill="#faf7f0" opacity="0.38"/><circle cx="920.97" cy="765.74" r="1.39" fill="#faf7f0" opacity="0.32"/><circle cx="831.91" cy="630.67" r="0.66" fill="#faf7f0" opacity="0.47"/><circle cx="763.75" cy="541.93" r="0.77" fill="#faf7f0" opacity="0.41"/><circle cx="752.95" cy="264.12" r="1.1" fill="#faf7f0" opacity="0.42"/><circle cx="931.91" cy="438.91" r="0.56" fill="#faf7f0" opacity="0.58"/><circle cx="809.7" cy="679" r="0.58" fill="#faf7f0" opacity="0.37"/><circle cx="625.26" cy="45.76" r="1" fill="#faf7f0" opacity="0.33"/><circle cx="553.38" cy="309.45" r="0.53" fill="#faf7f0" opacity="0.53"/><circle cx="847.89" cy="782.32" r="1.32" fill="#faf7f0" opacity="0.32"/><circle cx="988.26" cy="489.17" r="1.04" fill="#faf7f0" opacity="0.2"/><circle cx="533.59" cy="223.54" r="0.63" fill="#faf7f0" opacity="0.57"/><circle cx="47.6" cy="83.25" r="0.94" fill="#faf7f0" opacity="0.48"/><circle cx="494.84" cy="108.4" r="0.6" fill="#faf7f0" opacity="0.24"/><circle cx="44.99" cy="720.63" r="0.77" fill="#faf7f0" opacity="0.3"/><circle cx="547.75" cy="156.25" r="0.89" fill="#faf7f0" opacity="0.56"/><circle cx="274.62" cy="344.69" r="0.62" fill="#faf7f0" opacity="0.47"/><circle cx="699.37" cy="501.81" r="0.67" fill="#faf7f0" opacity="0.57"/><circle cx="385.6" cy="795.6" r="0.44" fill="#faf7f0" opacity="0.35"/><circle cx="878.81" cy="278.82" r="1.17" fill="#faf7f0" opacity="0.35"/><circle cx="50.29" cy="792.28" r="1.44" fill="#faf7f0" opacity="0.44"/><circle cx="303.66" cy="166.23" r="0.67" fill="#faf7f0" opacity="0.2"/><circle cx="2.03" cy="51.44" r="1.2" fill="#faf7f0" opacity="0.25"/><circle cx="220.45" cy="224.53" r="1.02" fill="#faf7f0" opacity="0.34"/><circle cx="853.88" cy="61.61" r="1.08" fill="#faf7f0" opacity="0.42"/><circle cx="647.17" cy="456.1" r="0.43" fill="#faf7f0" opacity="0.53"/><circle cx="44.01" cy="316.86" r="1.25" fill="#faf7f0" opacity="0.47"/><circle cx="935.51" cy="495.71" r="1.32" fill="#faf7f0" opacity="0.34"/><circle cx="416.55" cy="57.71" r="1.43" fill="#faf7f0" opacity="0.39"/>
</svg>
