<svg xmlns="http://www.w3.org/2000/svg" viewBox="0 0 1000 820" width="1000" height="820">
<path d="M753.45 563.62L747.42 568.03L742.55 573.17L737.72 578.29L732.84 583.34L727.88 588.28L722.82 593.12L717.66 597.83L712.39 602.41L707.02 606.86L701.55 611.17L695.98 615.34L690.31 619.37L684.54 623.24L678.69 626.97L672.75 630.55L666.73 633.98L660.63 637.26L654.46 640.38L648.22 643.35L641.92 646.16L635.56 648.82L629.14 651.32L622.68 653.67L616.17 655.87L609.63 657.92L603.04 659.81L596.42 661.55L589.78 663.14L583.11 664.59L576.42 665.88L569.71 667.03L562.99 668.04L556.26 668.9L549.52 669.62L542.77 670.2L536.03 670.64L529.28 670.94L522.55 671.1L515.81 671.12L509.09 671.01L502.38 670.77L495.69 670.39L489.01 669.88L482.35 669.24L475.71 668.47L469.1 667.57L462.51 666.53L455.96 665.37L449.43 664.08L442.94 662.66L436.48 661.11L430.06 659.44L423.68 657.63L417.35 655.7L411.06 653.64L404.82 651.46L398.63 649.15L392.5 646.71L386.42 644.14L380.4 641.45L374.45 638.63L368.56 635.68L362.75 632.61L357 629.41L351.34 626.09L345.75 622.65L340.24 619.08L334.82 615.4L329.49 611.59L324.25 607.66L319.11 603.61L314.07 599.45L309.13 595.17L304.3 590.78L299.57 586.28L294.96 581.67L290.47 576.95L286.09 572.13L281.83 567.21L277.7 562.19L273.7 557.07L269.82 551.86L266.08 546.56L262.46 541.18L258.99 535.71L255.65 530.16L252.45 524.53L249.39 518.84L246.47 513.07L243.69 507.24L241.06 501.34L238.57 495.39L236.22 489.38L234.02 483.33L231.96 477.22L230.05 471.08L228.29 464.89L226.66 458.67L225.18 452.41L223.85 446.12L222.65 439.81L221.6 433.48L220.69 427.12L219.91 420.75L219.28 414.36L218.78 407.97L218.41 401.56L218.18 395.15L218.08 388.73L218.12 382.32L218.28 375.9L218.58 369.48L219 363.08L219.54 356.67L220.22 350.28L221.01 343.9L221.94 337.52L222.98 331.17L224.14 324.82L225.43 318.5L226.84 312.19L228.37 305.9L230.02 299.64L231.79 293.39L233.67 287.18L235.68 280.99L237.82 274.82L240.07 268.69L242.44 262.59L244.94 256.53L247.55 250.5L250.3 244.52L253.16 238.57L256.15 232.68L259.27 226.82L262.51 221.03L265.88 215.28L269.38 209.59L273.01 203.97L276.77 198.41L280.66 192.92L284.68 187.5L288.83 182.17L293.11 176.91L297.52 171.75L302.07 166.67L306.74 161.7L311.54 156.82L316.48 152.06L321.54 147.41L326.73 142.87L332.04 138.46L337.48 134.18L343.03 130.03L348.71 126.03L354.5 122.17L360.4 118.46L366.41 114.9L372.53 111.51L378.75 108.28L385.06 105.22L391.46 102.34L397.96 99.64L404.53 97.12L411.18 94.78L417.9 92.64L424.68 90.69L431.52 88.94L438.42 87.38L445.36 86.03L452.33 84.88L459.34 83.93L466.38 83.19L473.43 82.66L480.5 82.33L487.57 82.2L494.64 82.28L501.7 82.57L508.74 83.06L515.76 83.74L522.75 84.63L529.71 85.72L536.63 86.99L543.5 88.46L550.31 90.11L557.07 91.95L563.77 93.97L570.4 96.16L576.95 98.51L583.43 101.04L589.83 103.72L596.14 106.56L602.37 109.55L608.5 112.68L614.54 115.95L620.49 119.36L626.34 122.89L632.1 126.54L637.75 130.31L643.3 134.19L648.75 138.18L654.1 142.27L659.36 146.46L664.51 150.73L669.56 155.1L674.51 159.54L679.36 164.06L684.12 168.66L688.78 173.33L693.35 178.06L697.83 182.86L702.22 187.72L706.52 192.63L710.74 197.6L714.88 202.62L718.94 207.69L722.94 212.8L726.88 217.94L730.86 223.06L730.86 223.06L727.56 217.47L724.03 212.02L720.38 206.63L716.61 201.3L712.74 196.02L708.77 190.8L704.69 185.63L700.5 180.52L696.21 175.47L691.81 170.48L687.31 165.56L682.69 160.7L677.96 155.92L673.12 151.21L668.16 146.58L663.09 142.03L657.91 137.58L652.61 133.21L647.2 128.94L641.67 124.78L636.02 120.73L630.26 116.79L624.39 112.97L618.4 109.28L612.31 105.72L606.1 102.3L599.79 99.02L593.37 95.9L586.86 92.93L580.24 90.12L573.54 87.48L566.74 85.01L559.86 82.72L552.9 80.62L545.87 78.7L538.77 76.97L531.61 75.45L524.39 74.12L517.12 73L509.81 72.08L502.46 71.38L495.08 70.89L487.69 70.61L480.27 70.55L472.86 70.71L465.44 71.08L458.03 71.68L450.64 72.49L443.27 73.52L435.93 74.77L428.63 76.23L421.37 77.91L414.17 79.79L407.03 81.89L399.96 84.19L392.95 86.69L386.03 89.38L379.2 92.28L372.45 95.36L365.8 98.62L359.25 102.06L352.81 105.68L346.48 109.47L340.27 113.42L334.17 117.53L328.2 121.79L322.35 126.2L316.63 130.74L311.03 135.43L305.58 140.24L300.25 145.17L295.06 150.22L290.01 155.38L285.1 160.65L280.32 166.02L275.69 171.48L271.19 177.04L266.83 182.68L262.6 188.4L258.52 194.19L254.57 200.06L250.76 205.99L247.09 211.99L243.55 218.05L240.15 224.16L236.88 230.33L233.74 236.55L230.73 242.81L227.85 249.12L225.11 255.47L222.49 261.87L220 268.3L217.64 274.76L215.41 281.26L213.3 287.8L211.33 294.36L209.48 300.95L207.76 307.58L206.16 314.22L204.69 320.9L203.36 327.6L202.15 334.32L201.07 341.06L200.13 347.82L199.32 354.6L198.64 361.39L198.1 368.2L197.69 375.02L197.43 381.86L197.3 388.7L197.32 395.55L197.48 402.4L197.79 409.25L198.24 416.1L198.84 422.95L199.6 429.79L200.5 436.63L201.56 443.44L202.77 450.24L204.14 457.02L205.67 463.77L207.36 470.5L209.2 477.19L211.21 483.84L213.37 490.46L215.7 497.02L218.18 503.54L220.83 510L223.64 516.4L226.6 522.74L229.72 529.01L233 535.21L236.44 541.33L240.03 547.36L243.77 553.32L247.66 559.18L251.7 564.94L255.88 570.61L260.21 576.18L264.67 581.64L269.27 586.99L274.01 592.23L278.87 597.35L283.86 602.36L288.97 607.24L294.2 612L299.54 616.63L304.99 621.13L310.55 625.5L316.22 629.74L321.98 633.85L327.83 637.81L333.78 641.65L339.81 645.34L345.93 648.9L352.12 652.31L358.39 655.59L364.73 658.72L371.14 661.72L377.61 664.57L384.14 667.28L390.73 669.85L397.37 672.28L404.07 674.57L410.81 676.71L417.6 678.71L424.43 680.57L431.3 682.29L438.21 683.87L445.15 685.3L452.12 686.59L459.12 687.74L466.15 688.74L473.2 689.61L480.28 690.32L487.37 690.89L494.48 691.32L501.61 691.6L508.74 691.73L515.89 691.71L523.04 691.55L530.2 691.23L537.35 690.76L544.51 690.13L551.66 689.35L558.8 688.42L565.92 687.32L573.03 686.07L580.12 684.65L587.19 683.08L594.22 681.33L601.23 679.43L608.19 677.35L615.11 675.11L621.98 672.7L628.8 670.12L635.56 667.37L642.25 664.44L648.88 661.35L655.42 658.08L661.88 654.64L668.25 651.03L674.52 647.25L680.69 643.3L686.75 639.18L692.69 634.89L698.5 630.43L704.18 625.82L709.72 621.03L715.11 616.09L720.34 610.99L725.41 605.74L730.29 600.33L734.99 594.77L739.47 589.05L743.73 583.18L747.72 577.13L751.33 570.86L753.45 563.62Z" fill="#3f6ac0" opacity="0.92"/>
<line x1="764.9" y1="571.68" x2="771.44" y2="576.28" stroke="#82abec" stroke-width="1" opacity="0.4"/><line x1="665.4" y1="659.5" x2="669.54" y2="666.35" stroke="#82abec" stroke-width="1" opacity="0.4"/><line x1="531.14" y1="695.01" x2="531.94" y2="702.97" stroke="#82abec" stroke-width="1" opacity="0.4"/><line x1="403.16" y1="677.39" x2="400.64" y2="684.99" stroke="#82abec" stroke-width="1" opacity="0.4"/><line x1="292.25" y1="613.94" x2="286.87" y2="619.86" stroke="#82abec" stroke-width="1" opacity="0.4"/><line x1="218.16" y1="511.38" x2="210.86" y2="514.65" stroke="#82abec" stroke-width="1" opacity="0.4"/><line x1="193.77" y1="381.93" x2="185.78" y2="381.84" stroke="#82abec" stroke-width="1" opacity="0.4"/><line x1="218.5" y1="259.57" x2="211.19" y2="256.3" stroke="#82abec" stroke-width="1" opacity="0.4"/><line x1="286.62" y1="150.67" x2="281.24" y2="144.75" stroke="#82abec" stroke-width="1" opacity="0.4"/><line x1="397.84" y1="77.36" x2="395.32" y2="69.77" stroke="#82abec" stroke-width="1" opacity="0.4"/><line x1="539.43" y1="68.09" x2="540.41" y2="60.15" stroke="#82abec" stroke-width="1" opacity="0.4"/><line x1="657.92" y1="123.71" x2="662.05" y2="116.86" stroke="#82abec" stroke-width="1" opacity="0.4"/><line x1="742.31" y1="215" x2="748.86" y2="210.4" stroke="#82abec" stroke-width="1" opacity="0.4"/>
<circle cx="753.45" cy="563.62" r="6.22" fill="#82abec"/><circle cx="760.67" cy="550.25" r="1.39" fill="#82abec" opacity="0.65"/><circle cx="764.04" cy="589.3" r="1.01" fill="#82abec" opacity="0.65"/><circle cx="658.17" cy="647.51" r="4.33" fill="#82abec"/><circle cx="676.35" cy="630.88" r="1.85" fill="#82abec" opacity="0.65"/><circle cx="659.82" cy="660.96" r="1.84" fill="#82abec" opacity="0.65"/><circle cx="637.27" cy="633.44" r="1.09" fill="#82abec" opacity="0.65"/><circle cx="669.95" cy="664" r="1.45" fill="#82abec" opacity="0.65"/><circle cx="529.74" cy="681.08" r="5.12" fill="#82abec"/><circle cx="514.46" cy="675.77" r="1.45" fill="#82abec" opacity="0.65"/><circle cx="532.53" cy="654.45" r="1.94" fill="#82abec" opacity="0.65"/><circle cx="407.56" cy="664.11" r="3.87" fill="#82abec"/><circle cx="391.23" cy="686.33" r="1.92" fill="#82abec" opacity="0.65"/><circle cx="393.24" cy="659.18" r="1.52" fill="#82abec" opacity="0.65"/><circle cx="301.66" cy="603.58" r="4.29" fill="#82abec"/><circle cx="320.14" cy="623.36" r="1.33" fill="#82abec" opacity="0.65"/><circle cx="287.32" cy="615.12" r="1.45" fill="#82abec" opacity="0.65"/><circle cx="230.94" cy="505.67" r="4.71" fill="#82abec"/><circle cx="244.95" cy="507.27" r="1.65" fill="#82abec" opacity="0.65"/><circle cx="227.95" cy="531.58" r="1.9" fill="#82abec" opacity="0.65"/><circle cx="229.9" cy="533.12" r="1.74" fill="#82abec" opacity="0.65"/><circle cx="216.01" cy="518.21" r="1.69" fill="#82abec" opacity="0.65"/><circle cx="207.77" cy="382.09" r="4.37" fill="#82abec"/><circle cx="228.75" cy="376.92" r="1.02" fill="#82abec" opacity="0.65"/><circle cx="212.46" cy="353.43" r="0.95" fill="#82abec" opacity="0.65"/><circle cx="231.28" cy="265.28" r="4.76" fill="#82abec"/><circle cx="256.85" cy="264.13" r="1.79" fill="#82abec" opacity="0.65"/><circle cx="224.21" cy="282.88" r="1.48" fill="#82abec" opacity="0.65"/><circle cx="296.04" cy="161.03" r="6.22" fill="#82abec"/><circle cx="291.74" cy="139.99" r="1.3" fill="#82abec" opacity="0.65"/><circle cx="305.47" cy="139.41" r="1.85" fill="#82abec" opacity="0.65"/><circle cx="299.78" cy="182.98" r="1" fill="#82abec" opacity="0.65"/><circle cx="402.24" cy="90.65" r="3.84" fill="#82abec"/><circle cx="400.61" cy="76.79" r="1.03" fill="#82abec" opacity="0.65"/><circle cx="379.33" cy="84.33" r="1.77" fill="#82abec" opacity="0.65"/><circle cx="424.82" cy="88.36" r="1.51" fill="#82abec" opacity="0.65"/><circle cx="537.7" cy="81.98" r="4.92" fill="#82abec"/><circle cx="546.95" cy="66.3" r="1.61" fill="#82abec" opacity="0.65"/><circle cx="541.8" cy="103.99" r="1.84" fill="#82abec" opacity="0.65"/><circle cx="548.84" cy="61.02" r="1.58" fill="#82abec" opacity="0.65"/><circle cx="543.69" cy="94.77" r="1.49" fill="#82abec" opacity="0.65"/><circle cx="650.68" cy="135.7" r="3.24" fill="#82abec"/><circle cx="671.61" cy="140.96" r="1.02" fill="#82abec" opacity="0.65"/><circle cx="658.66" cy="115.66" r="1.32" fill="#82abec" opacity="0.65"/><circle cx="675.13" cy="125.54" r="1.62" fill="#82abec" opacity="0.65"/><circle cx="730.86" cy="223.06" r="3.3" fill="#82abec"/><circle cx="734.27" cy="247.48" r="1.86" fill="#82abec" opacity="0.65"/><circle cx="731.13" cy="238.27" r="1.16" fill="#82abec" opacity="0.65"/><circle cx="752.99" cy="236.97" r="1.75" fill="#82abec" opacity="0.65"/><circle cx="705.46" cy="218.91" r="1.51" fill="#82abec" opacity="0.65"/>
</svg>
