<svg xmlns="http://www.w3.org/2000/svg" viewBox="0 0 1200 60" width="1200" height="60" preserveAspectRatio="none">
<path d="M0 22Q33.33 11.44 66.67 22Q100 26.75 133.33 22Q166.67 12.33 200 22Q233.33 26.35 266.67 22Q300 8.24 333.33 22Q366.67 28.19 400 22Q433.33 12.14 466.67 22Q500 26.43 533.33 22Q566.67 10.02 600 22Q633.33 27.39 666.67 22Q700 9.86 733.33 22Q766.67 27.46 800 22Q833.33 7.58 866.67 22Q900 28.49 933.33 22Q966.67 9.38 1000 22Q1033.33 27.68 1066.67 22Q1100 2.17 1133.33 22Q1166.67 30.93 1200 22L1200 52.4Q1166.67 66.48 1133.33 52.4Q1100 46.06 1066.67 52.4Q1033.33 60.78 1000 52.4Q966.67 48.63 933.33 52.4Q900 66.62 866.67 52.4Q833.33 46 800 52.4Q766.67 63.79 733.33 52.4Q700 47.28 666.67 52.4Q633.33 58.76 600 52.4Q566.67 49.54 533.33 52.4Q500 58.71 466.67 52.4Q433.33 49.56 400 52.4Q366.67 59.84 333.33 52.4Q300 49.05 266.67 52.4Q233.33 65.53 200 52.4Q166.67 46.49 133.33 52.4Q100 62.08 66.67 52.4Q33.33 48.04 0 52.4Z" fill="#2b4d96" opacity="0.22"/>
<path d="M0 22Q33.33 11.44 66.67 22Q100 26.75 133.33 22Q166.67 12.33 200 22Q233.33 26.35 266.67 22Q300 8.24 333.33 22Q366.67 28.19 400 22Q433.33 12.14 466.67 22Q500 26.43 533.33 22Q566.67 10.02 600 22Q633.33 27.39 666.67 22Q700 9.86 733.33 22Q766.67 27.46 800 22Q833.33 7.58 866.67 22Q900 28.49 933.33 22Q966.67 9.38 1000 22Q1033.33 27.68 1066.67 22Q1100 2.17 1133.33 22Q1166.67 30.93 1200 22L1200 52.4Q1166.67 66.48 1133.33 52.4Q1100 46.06 1066.67 52.4Q1033.33 60.78 1000 52.4Q966.67 48.63 933.33 52.4Q900 66.62 866.67 52.4Q833.33 46 800 52.4Q766.67 63.79 733.33 52.4Q700 47.28 666.67 52.4Q633.33 58.76 600 52.4Q566.67 49.54 533.33 52.4Q500 58.71 466.67 52.4Q433.33 49.56 400 52.4Q366.67 59.84 333.33 52.4Q300 49.05 266.67 52.4Q233.33 65.53 200 52.4Q166.67 46.49 133.33 52.4Q100 62.08 66.67 52.4Q33.33 48.04 0 52.4Z" fill="none" stroke="#e89b2e" stroke-width="1" opacity="0.3"/>
</svg>
